<?xml version="1.0" encoding="utf-8"?>
<!-- Generator: Adobe Illustrator 27.8.0, SVG Export Plug-In . SVG Version: 6.00 Build 0)  -->
<svg version="1.1" id="Layer_1" xmlns="http://www.w3.org/2000/svg" xmlns:xlink="http://www.w3.org/1999/xlink" x="0px" y="0px"
	 viewBox="0 0 138 48" style="enable-background:new 0 0 138 48;" xml:space="preserve">
<style type="text/css">
	.st0{clip-path:url(#SVGID_00000023239462886360547160000003442000721970854306_);}
	.st1{fill:url(#SVGID_00000054975647078817982490000014844315630824128391_);}
	.st2{fill-rule:evenodd;clip-rule:evenodd;fill:#FFFFFF;}
	.st3{fill:#FFFFFF;}
</style>
<g>
	<g>
		<defs>
			<rect id="SVGID_1_" x="1.4" y="0.2" width="47.6" height="47.6"/>
		</defs>
		<clipPath id="SVGID_00000020397315612545687950000000794680380634758815_">
			<use xlink:href="#SVGID_1_"  style="overflow:visible;"/>
		</clipPath>
		<g style="clip-path:url(#SVGID_00000020397315612545687950000000794680380634758815_);">
			
				<linearGradient id="SVGID_00000006710126773413107720000009210813720591029411_" gradientUnits="userSpaceOnUse" x1="25.2024" y1="49.8054" x2="25.2024" y2="2.1946" gradientTransform="matrix(1 0 0 -1 0 50)">
				<stop  offset="0" style="stop-color:#6246F5"/>
				<stop  offset="0.493" style="stop-color:#5166EE"/>
				<stop  offset="1" style="stop-color:#56B9F9"/>
			</linearGradient>
			<path style="fill:url(#SVGID_00000006710126773413107720000009210813720591029411_);" d="M49,24c0,13.1-10.7,23.8-23.8,23.8
				C12.1,47.8,1.4,37.1,1.4,24S12.1,0.2,25.2,0.2S49,10.9,49,24z"/>
			<path class="st2" d="M25.2,11.1c-7.1,0-12.9,5.8-12.9,12.9c0,0.7,0.1,1.4,0.2,2c0.1,0.5,0.3,1.4,0.8,1.7c0.6,0.4,1.3,0.1,1.9-0.2
				l0,0c0.5-0.2,1.8-0.8,2.4-1.1c0.1-0.1,0.5-0.2,0.9,0c0.5,0.2,0.6,0.7,0.6,1c0,0.3-0.2,0.7-0.6,0.8c-0.3,0.1-2.1,1-3,1.4
				c-0.2,0.1-0.6,0.3-0.8,0.9c-0.2,0.6,0.1,1.1,0.2,1.3c0.1,0.1,0.3,0.4,0.6,0.5c0.4,0.1,0.7,0.1,1,0c0.2-0.1,4.5-2.1,6.6-3.1
				c0.1-0.1,0.5-0.2,0.9,0c0.5,0.2,0.6,0.7,0.6,1c0,0.3-0.2,0.7-0.6,0.9c-0.3,0.1-3.1,1.5-4.5,2.1c-0.2,0.1-0.7,0.5-0.8,1.2
				c0,0.8,0.5,1.2,0.8,1.3c0.2,0.1,0.7,0.2,1.2,0c0.5-0.2,5.6-2.6,8.1-3.8c0.1-0.1,0.5-0.2,0.9,0c0.4,0.2,0.6,0.6,0.6,0.9
				c0,0.3,0,0.5-0.5,0.9c-0.4,0.4-1,0.7-3.1,1.6c-0.7,0.3-1.2,0.5-1.1,0.9c0.1,0.3,0.3,0.4,0.9,0.4c0.7,0,3.8-0.3,6.8-2.8
				c2.7-2.4,4.4-5.8,4.4-9.7c0-1.4-0.2-2.8-0.7-4.1C37.2,20,37.1,20,36.9,20c-0.7,0-1.2-0.6-1.2-1.2c0-0.5,0.3-0.9,0.7-1.1
				C34.2,13.8,30,11.1,25.2,11.1z M30,19.2c0,0.7-0.6,1.2-1.2,1.2c-0.7,0-1.2-0.6-1.2-1.2c0-0.7,0.6-1.2,1.2-1.2
				C29.4,18,30,18.6,30,19.2z"/>
		</g>
	</g>
	<path class="st3" d="M67.7,37.4c-2.1,0-3.9-0.4-5.5-1.2c-1.5-0.8-2.7-2-3.6-3.5c-0.8-1.5-1.3-3.3-1.3-5.3c0-2.1,0.4-3.9,1.3-5.4
		c0.9-1.5,2.1-2.7,3.6-3.5c1.6-0.8,3.4-1.2,5.4-1.2c2.1,0,3.9,0.4,5.4,1.2c1.5,0.8,2.7,2,3.6,3.5c0.8,1.5,1.3,3.3,1.3,5.4
		c0,2-0.4,3.8-1.3,5.4c-0.8,1.5-2,2.7-3.6,3.5C71.6,36.9,69.8,37.4,67.7,37.4z M67.7,33.2c1.7,0,3.1-0.5,4-1.6
		c0.9-1.1,1.4-2.5,1.4-4.3c0-1.9-0.5-3.3-1.4-4.3c-0.9-1-2.3-1.6-4-1.6c-1.7,0-3.1,0.5-4.1,1.6c-0.9,1-1.4,2.5-1.4,4.3
		c0,1.9,0.5,3.3,1.4,4.4C64.6,32.6,66,33.2,67.7,33.2z"/>
	<path class="st3" d="M81.1,37V9.8h4.8v15.2H86l8.2-7.5h5.8l-8.4,7.6l9.1,11.8h-5.7l-6.8-8.8L85.9,30v7H81.1z"/>
	<path class="st3" d="M108.6,37c-1.3,0-2.3-0.3-3-1c-0.7-0.6-1-1.6-1-2.9V21.3h-3.4v-3.7h3.5v-5.8h4.7v5.8h4.7v3.7h-4.6v11.9h5.1V37
		H108.6z"/>
	<path class="st3" d="M126.4,37.4c-2.1,0-3.9-0.4-5.5-1.2c-1.5-0.8-2.7-2-3.6-3.5c-0.8-1.5-1.3-3.3-1.3-5.3c0-2.1,0.4-3.9,1.3-5.4
		c0.9-1.5,2.1-2.7,3.6-3.5c1.6-0.8,3.4-1.2,5.4-1.2c2.1,0,3.9,0.4,5.4,1.2c1.5,0.8,2.7,2,3.6,3.5c0.8,1.5,1.3,3.3,1.3,5.4
		c0,2-0.4,3.8-1.3,5.4c-0.8,1.5-2,2.7-3.6,3.5S128.5,37.4,126.4,37.4z M126.4,33.2c1.7,0,3.1-0.5,4-1.6c0.9-1.1,1.4-2.5,1.4-4.3
		c0-1.9-0.5-3.3-1.4-4.3c-0.9-1-2.3-1.6-4-1.6c-1.7,0-3.1,0.5-4.1,1.6c-0.9,1-1.4,2.5-1.4,4.3c0,1.9,0.5,3.3,1.4,4.4
		C123.3,32.6,124.6,33.2,126.4,33.2z"/>
</g>
</svg>
